<svg xmlns="http://www.w3.org/2000/svg" xmlns:xlink="http://www.w3.org/1999/xlink" width="60.583" height="60.628" viewBox="0 0 60.583 60.628">
  <defs>
    <style>
      .cls-1 {
        fill: #3a8dfd;
      }

      .cls-2 {
        clip-path: url(#clip-path);
      }
    </style>
    <clipPath id="clip-path">
      <rect id="사각형_81" data-name="사각형 81" class="cls-1" width="60.583" height="60.628"/>
    </clipPath>
  </defs>
  <g id="그룹_64" data-name="그룹 64" class="cls-2">
    <path id="패스_110" data-name="패스 110" class="cls-1" d="M0,17.163A12.481,12.481,0,0,1,3.667,8.347L10.59,1.424a4.865,4.865,0,0,1,6.878,0L28.007,11.963a4.867,4.867,0,0,1,0,6.878l-6.57,6.57,6.507,6.5,0,0,7.271,7.275,6.57-6.57a4.86,4.86,0,0,1,6.878,0L59.206,43.162a4.979,4.979,0,0,1,0,6.878l-6.925,6.923A12.445,12.445,0,0,1,41.388,60.45c-6.009-1.031-15.391-4.483-26-15.063l-.057-.055C4.686,34.686,1.217,25.268.18,19.24A12.059,12.059,0,0,1,0,17.163M25.182,15.4A.621.621,0,0,0,25,14.966L14.464,4.429a.618.618,0,0,0-.871,0L6.671,11.35a8.228,8.228,0,0,0-2.3,7.171c.93,5.4,4.1,13.9,13.883,23.721l.055.053c9.857,9.859,18.386,13.036,23.8,13.969a8.2,8.2,0,0,0,7.171-2.307L56.2,47.036a.533.533,0,0,0,0-.869L45.661,35.626a.613.613,0,0,0-.869,0L36.718,43.7a2.122,2.122,0,0,1-3,0L16.931,26.913a2.185,2.185,0,0,1,0-3L25,15.837a.607.607,0,0,0,.178-.434" transform="translate(0 0)"/>
  </g>
</svg>
