<svg xmlns="http://www.w3.org/2000/svg" width="33.119" height="33.117" viewBox="0 0 33.119 33.117">
  <defs>
    <style>
      .cls-1 {
        fill: #fff;
      }
    </style>
  </defs>
  <g id="compose" transform="translate(-4.5 -4.502)">
    <path id="패스_74" data-name="패스 74" class="cls-1" d="M32.526,7.57,29.9,4.948a1.536,1.536,0,0,0-2.165,0L25,7.691l4.787,4.787,2.743-2.734A1.547,1.547,0,0,0,32.526,7.57Z" transform="translate(4.647)"/>
    <path id="패스_75" data-name="패스 75" class="cls-1" d="M27.3,7.77,12.466,23.08,11.25,28.6l5.52-1.216L32,12.462Z" transform="translate(1.53 0.741)"/>
    <path id="패스_76" data-name="패스 76" class="cls-1" d="M32.1,20.551V33.489a.848.848,0,0,1-.794.871l-23.2-.009a.9.9,0,0,1-.845-.862V10.373a.917.917,0,0,1,.914-.862H21.061l2.76-2.76H6.518A2,2,0,0,0,4.5,8.759V35.092A2.02,2.02,0,0,0,6.518,37.11H32.851a2.013,2.013,0,0,0,2.009-2.018v-17.3l-2.76,2.76Z" transform="translate(0 0.51)"/>
  </g>
</svg>
