<svg id="레이어_1" data-name="레이어 1" xmlns="http://www.w3.org/2000/svg" viewBox="0 0 103.71 84.17"><defs><style>.cls-1{fill:#fff;}.cls-2,.cls-4{fill:#595656;}.cls-3{fill:#0087f9;}.cls-4{stroke:#595656;stroke-miterlimit:10;}</style></defs><rect class="cls-1" x="21.57" y="2.25" width="27.29" height="68.6"/><path class="cls-2" d="M957.08,430.53H929.79a2.25,2.25,0,0,1-2.25-2.25v-68.6a2.25,2.25,0,0,1,2.25-2.25h27.29a2.25,2.25,0,0,1,2.25,2.25v68.6A2.25,2.25,0,0,1,957.08,430.53ZM932,426h22.79v-64.1H932Z" transform="translate(-908.22 -357.43)"/><rect class="cls-1" x="14.19" y="13.31" width="42.04" height="68.6"/><path class="cls-2" d="M964.46,441.6H922.41a2.25,2.25,0,0,1-2.25-2.25V370.74a2.25,2.25,0,0,1,2.25-2.25h42.05a2.25,2.25,0,0,1,2.25,2.25v68.61A2.25,2.25,0,0,1,964.46,441.6Zm-39.8-4.5h37.55V373H924.66Z" transform="translate(-908.22 -357.43)"/><path class="cls-2" d="M1009.68,441.6H910.47a2.25,2.25,0,0,1,0-4.5h99.21a2.25,2.25,0,0,1,0,4.5Z" transform="translate(-908.22 -357.43)"/><rect class="cls-1" x="24.73" y="24.16" width="20.5" height="7.25"/><path class="cls-3" d="M953.45,391.09H933a2.25,2.25,0,0,1-2.25-2.25v-7.25a2.25,2.25,0,0,1,2.25-2.25h20.5a2.24,2.24,0,0,1,2.25,2.25v7.25A2.25,2.25,0,0,1,953.45,391.09Zm-18.25-4.5h16v-2.75h-16Z" transform="translate(-908.22 -357.43)"/><rect class="cls-1" x="24.73" y="42.41" width="20.5" height="7.25"/><path class="cls-3" d="M953.45,409.34H933a2.25,2.25,0,0,1-2.25-2.25v-7.25a2.25,2.25,0,0,1,2.25-2.25h20.5a2.24,2.24,0,0,1,2.25,2.25v7.25A2.25,2.25,0,0,1,953.45,409.34Zm-18.25-4.5h16v-2.75h-16Z" transform="translate(-908.22 -357.43)"/><rect class="cls-1" x="24.73" y="60.66" width="20.5" height="7.25"/><path class="cls-3" d="M953.45,427.59H933a2.25,2.25,0,0,1-2.25-2.25v-7.25a2.25,2.25,0,0,1,2.25-2.25h20.5a2.24,2.24,0,0,1,2.25,2.25v7.25A2.25,2.25,0,0,1,953.45,427.59Zm-18.25-4.5h16v-2.75h-16Z" transform="translate(-908.22 -357.43)"/><circle class="cls-1" cx="74.55" cy="54.68" r="19.98"/><path class="cls-1" d="M1004,412.11a21.24,21.24,0,1,0-21.24,21.23A21.24,21.24,0,0,0,1004,412.11Z" transform="translate(-908.22 -357.43)"/><path class="cls-4" d="M982.77,435a22.86,22.86,0,1,1,22.86-22.86A22.88,22.88,0,0,1,982.77,435Zm0-42.47a19.61,19.61,0,1,0,19.61,19.61A19.64,19.64,0,0,0,982.77,392.5Z" transform="translate(-908.22 -357.43)"/><path class="cls-3" d="M988.06,422.52a1.56,1.56,0,0,1-1.46-1l-3.23-8.7-3.24,8.7a1.53,1.53,0,0,1-1.45,1,1.56,1.56,0,0,1-1.46-1l-5.84-15.72a1.55,1.55,0,1,1,2.9-1.08l4.4,11.81,3.23-8.7a1.55,1.55,0,0,1,2.91,0l3.24,8.7,4.39-11.81a1.54,1.54,0,0,1,2-.92,1.56,1.56,0,0,1,.92,2l-5.85,15.72A1.55,1.55,0,0,1,988.06,422.52Z" transform="translate(-908.22 -357.43)"/><path class="cls-3" d="M974.47,414.87h-4.36a1.63,1.63,0,1,1,0-3.25h4.36a1.63,1.63,0,1,1,0,3.25Z" transform="translate(-908.22 -357.43)"/><path class="cls-3" d="M995.43,414.87h-4.35a1.63,1.63,0,1,1,0-3.25h4.35a1.63,1.63,0,1,1,0,3.25Z" transform="translate(-908.22 -357.43)"/></svg>