<svg id="레이어_1" data-name="레이어 1" xmlns="http://www.w3.org/2000/svg" viewBox="0 0 104.71 97.07"><defs><style>.cls-1{fill:#595656;stroke:#595656;}.cls-1,.cls-3{stroke-miterlimit:10;}.cls-2{fill:#fff;}.cls-3{fill:#0087f9;stroke:#0087f9;}</style></defs><path class="cls-1" d="M971.08,377.31h-22a12.92,12.92,0,1,1,0-25.83h22a12.92,12.92,0,0,1,0,25.83Zm-22-21.33a8.42,8.42,0,1,0,0,16.83h22a8.42,8.42,0,0,0,0-16.83Z" transform="translate(-907.72 -350.98)"/><rect class="cls-2" x="2.75" y="14.4" width="99.21" height="79.92" rx="9.89"/><path class="cls-1" d="M999.79,447.55H920.36a12.15,12.15,0,0,1-12.14-12.14V375.27a12.15,12.15,0,0,1,12.14-12.14h79.43a12.15,12.15,0,0,1,12.14,12.14v60.14A12.15,12.15,0,0,1,999.79,447.55Zm-79.43-79.92a7.65,7.65,0,0,0-7.64,7.64v60.14a7.65,7.65,0,0,0,7.64,7.64h79.43a7.65,7.65,0,0,0,7.64-7.64V375.27a7.65,7.65,0,0,0-7.64-7.64Z" transform="translate(-907.72 -350.98)"/><path class="cls-3" d="M935.83,407v8a4.25,4.25,0,0,1-4.25,4.25h0a4.25,4.25,0,0,1-4.25-4.25v-8" transform="translate(-907.72 -350.98)"/><path class="cls-3" d="M992.83,407v8a4.25,4.25,0,0,1-4.25,4.25h0a4.25,4.25,0,0,1-4.25-4.25v-8" transform="translate(-907.72 -350.98)"/><path class="cls-1" d="M960.08,419.38a2.17,2.17,0,0,1-.76-.13l-49.61-17.8a2.25,2.25,0,0,1,1.52-4.24l48.85,17.53,48.84-17.53a2.25,2.25,0,1,1,1.52,4.24l-49.6,17.8A2.25,2.25,0,0,1,960.08,419.38Z" transform="translate(-907.72 -350.98)"/></svg>