<svg id="레이어_1" data-name="레이어 1" xmlns="http://www.w3.org/2000/svg" viewBox="0 0 96 91.02"><defs><style>.cls-1{fill:#fff;}.cls-2{fill:#595656;}.cls-3{fill:#0087f9;}</style></defs><path class="cls-1" d="M923.44,388l10.89,13.63-2.81,7.34.29,3.4,3.63,7,8.12,7.3,5.88,2.18,5.34-2.66,3-2.23,13.1,7.85,1.64,3.49-7.11,5.23-10.3,2-11.7-4.82-20.3-16.44s-6.59-16.15-6.81-16.52-.74-12.3-.74-12.3Z" transform="translate(-912.17 -354.01)"/><path class="cls-2" d="M959.19,445a24.62,24.62,0,0,1-3.15-.21c-2.68-.36-5.18-.83-10.71-3.22l-.12-.06c-14.34-7.21-24.11-16.91-29.85-29.63-2.36-5.23-3.37-9.69-3.17-14a13.78,13.78,0,0,1,6.44-11.23,7.51,7.51,0,0,1,4.19-1.41,6.58,6.58,0,0,1,5.28,2.88c1.84,2.36,3.64,4.8,5.38,7.16l3,4.05c2,2.72,1.8,5.62-.69,8.15-2.11,2.15-2.16,2.76-.35,5.07.39.49.77,1,1.16,1.49,3,3.93,5.91,7.64,10,10a6.38,6.38,0,0,0,3.14,1c.74,0,1.92-.19,3.55-1.8,1.38-1.36,2.67-2.48,4.46-2.48a7.35,7.35,0,0,1,3.86,1.51c3.13,2,6.82,4.48,10.46,7.08,2.07,1.49,3.16,3.17,3.25,5s-.87,3.67-2.92,5.46A19.3,19.3,0,0,1,959.19,445Zm-12-7.54c5.35,2.32,7.44,2.6,9.46,2.86a15,15,0,0,0,12.83-3.91c1-.9,1.38-1.56,1.37-1.85s-.38-.83-1.37-1.54c-3.57-2.55-7.21-5-10.3-7a6.78,6.78,0,0,0-1.36-.76,8.75,8.75,0,0,0-1.34,1.17c-3.63,3.58-7.59,4.07-12.11,1.45-4.89-2.83-8.16-7.07-11.33-11.16-.38-.5-.76-1-1.15-1.48-3.19-4.08-3-7.26.69-11,1.06-1.07.93-1.46.3-2.29l-3-4.08c-1.72-2.34-3.5-4.75-5.3-7.07-.88-1.14-1.52-1.14-1.73-1.14a3.34,3.34,0,0,0-1.71.66,9.21,9.21,0,0,0-4.42,7.69c-.17,3.62.71,7.43,2.77,12C924.76,421.78,933.82,430.75,947.18,437.48Z" transform="translate(-912.17 -354.01)"/><path class="cls-3" d="M977.4,356.26a28.5,28.5,0,0,0-19,49.74l-3.11,9.32L964.2,410a28.51,28.51,0,1,0,13.2-53.77Z" transform="translate(-912.17 -354.01)"/><path class="cls-2" d="M955.27,417.57a2.19,2.19,0,0,1-1.41-.5,2.24,2.24,0,0,1-.72-2.46l2.65-8a30.78,30.78,0,1,1,8.5,5.94l-7.87,4.67A2.26,2.26,0,0,1,955.27,417.57Zm8.93-9.79a2.29,2.29,0,0,1,1,.26,26,26,0,0,0,12.16,3,26.26,26.26,0,1,0-17.52-6.7,2.22,2.22,0,0,1,.63,2.38l-1.2,3.6,3.74-2.21A2.24,2.24,0,0,1,964.2,407.78Z" transform="translate(-912.17 -354.01)"/><path class="cls-1" d="M965.37,385.79a3.43,3.43,0,1,0-3.43,3.43A3.42,3.42,0,0,0,965.37,385.79Z" transform="translate(-912.17 -354.01)"/><path class="cls-1" d="M980.83,385.79a3.43,3.43,0,1,0-3.43,3.43A3.42,3.42,0,0,0,980.83,385.79Z" transform="translate(-912.17 -354.01)"/><path class="cls-1" d="M995.85,385.79a3.43,3.43,0,1,0-3.43,3.43A3.43,3.43,0,0,0,995.85,385.79Z" transform="translate(-912.17 -354.01)"/></svg>