<svg id="레이어_1" data-name="레이어 1" xmlns="http://www.w3.org/2000/svg" viewBox="0 0 90.07 92.37"><defs><style>.cls-1{fill:#595656;}.cls-2{fill:#0087f9;}</style></defs><path class="cls-1" d="M928.91,432.13a2.66,2.66,0,0,1,2.66-2.65H968a2.65,2.65,0,0,1,2.65,2.65v4.51l14.26-14.27L970.6,408.11v4.5a2.65,2.65,0,0,1-2.65,2.65H931.57a2.66,2.66,0,1,1,0-5.31h33.72V401.7a2.66,2.66,0,0,1,4.53-1.88l20.68,20.67a2.75,2.75,0,0,1,0,3.76l-20.68,20.67a2.66,2.66,0,0,1-4.53-1.88v-8.25H931.57A2.66,2.66,0,0,1,928.91,432.13Z" transform="translate(-915.04 -353.33)"/><path class="cls-2" d="M928.91,422.37a2.66,2.66,0,0,1,2.66-2.65H950a2.66,2.66,0,0,1,0,5.31H931.57A2.66,2.66,0,0,1,928.91,422.37Z" transform="translate(-915.04 -353.33)"/><path class="cls-1" d="M915,412.61A2.66,2.66,0,0,1,917.7,410h18.39a2.66,2.66,0,0,1,0,5.31H917.7A2.66,2.66,0,0,1,915,412.61Z" transform="translate(-915.04 -353.33)"/><path class="cls-1" d="M915,432.13a2.65,2.65,0,0,1,2.66-2.65h18.39a2.65,2.65,0,0,1,0,5.3H917.7A2.65,2.65,0,0,1,915,432.13Z" transform="translate(-915.04 -353.33)"/><path class="cls-1" d="M991.24,366.89a2.66,2.66,0,0,1-2.65,2.66H952.21a2.66,2.66,0,0,1-2.66-2.66v-4.5l-14.26,14.27,14.26,14.26v-4.5a2.66,2.66,0,0,1,2.66-2.66h36.38a2.66,2.66,0,0,1,0,5.31H954.86v8.26a2.65,2.65,0,0,1-4.53,1.87l-20.67-20.67a2.72,2.72,0,0,1,0-3.75l20.67-20.67a2.65,2.65,0,0,1,4.53,1.87v8.26h33.73A2.65,2.65,0,0,1,991.24,366.89Z" transform="translate(-915.04 -353.33)"/><path class="cls-2" d="M991.24,376.65a2.66,2.66,0,0,1-2.65,2.66H970.2a2.66,2.66,0,1,1,0-5.31h18.39A2.65,2.65,0,0,1,991.24,376.65Z" transform="translate(-915.04 -353.33)"/><path class="cls-1" d="M1005.11,386.41a2.66,2.66,0,0,1-2.65,2.66H984.07a2.66,2.66,0,1,1,0-5.31h18.39A2.65,2.65,0,0,1,1005.11,386.41Z" transform="translate(-915.04 -353.33)"/><path class="cls-1" d="M1005.11,366.9a2.65,2.65,0,0,1-2.65,2.65H984.07a2.66,2.66,0,1,1,0-5.31h18.39A2.66,2.66,0,0,1,1005.11,366.9Z" transform="translate(-915.04 -353.33)"/></svg>