<svg id="레이어_1" data-name="레이어 1" xmlns="http://www.w3.org/2000/svg" viewBox="0 0 103.86 98.01"><defs><style>.cls-1{fill:#fff;}.cls-2{fill:#595656;}.cls-3{fill:#0087f6;}</style></defs><path class="cls-1" d="M569.79,453.18l31.58,31.58a5.09,5.09,0,0,0,7.22,0h0a5.1,5.1,0,0,0,0-7.21l-6.92-6.92.3-.3,8.72,8.72a5.11,5.11,0,0,0,7.22,0h0a5.09,5.09,0,0,0,0-7.22l-8.72-8.72.3-.3L620,473.34a5.11,5.11,0,0,0,7.22,0h0a5.11,5.11,0,0,0,0-7.22l-10.53-10.53.3-.3,12.33,12.33a5.09,5.09,0,0,0,7.22,0h0a5.11,5.11,0,0,0,0-7.22L609.19,433a29.81,29.81,0,0,0-24-7.09Z" transform="translate(-561.04 -390.5)"/><path class="cls-2" d="M605,488.51a7.26,7.26,0,0,1-5.2-2.16L568.2,454.77a2.24,2.24,0,0,1-.37-2.7l15.46-27.24a2.2,2.2,0,0,1,1.67-1.12,34.93,34.93,0,0,1,4.43-.29,31.47,31.47,0,0,1,21.39,8l27.37,27.36a7.36,7.36,0,0,1-5.2,12.56,7.65,7.65,0,0,1-2.09-.3,7.4,7.4,0,0,1-2,3.86,7.38,7.38,0,0,1-7.29,1.85,7.34,7.34,0,0,1-9.33,5.71,7.34,7.34,0,0,1-7.23,6ZM572.59,452.8,603,483.17a2.92,2.92,0,0,0,4,0,2.85,2.85,0,0,0,0-4l-6.92-6.92a2.25,2.25,0,0,1,0-3.18l.3-.3a2.25,2.25,0,0,1,3.18,0l8.73,8.72a2.91,2.91,0,0,0,4,0,2.85,2.85,0,0,0,0-4l-8.72-8.72a2.25,2.25,0,0,1,0-3.18l.3-.3a2.3,2.3,0,0,1,3.18,0l10.53,10.53a2.92,2.92,0,0,0,4,0,2.81,2.81,0,0,0,.84-2,2.86,2.86,0,0,0-.83-2l-10.53-10.53a2.25,2.25,0,0,1,0-3.18l.3-.3a2.25,2.25,0,0,1,3.18,0L630.93,466a2.92,2.92,0,0,0,4,0,2.87,2.87,0,0,0,0-4L607.6,434.62a27.59,27.59,0,0,0-18.21-6.7c-.91,0-1.83,0-2.76.13Z" transform="translate(-561.04 -390.5)"/><path class="cls-1" d="M616.93,440.61,604.87,446a5.14,5.14,0,0,1-7-2.14h0a5.14,5.14,0,0,1,2.14-7l10.65-8.09s11.69-10.21,25.73-5.11l8.08,3L656,453.18l-19.48,7.2Z" transform="translate(-561.04 -390.5)"/><path class="cls-2" d="M636.53,462.63a2.23,2.23,0,0,1-1.59-.67L616.42,443.3,605.85,448a7.39,7.39,0,0,1-7-13l10.46-7.95c.84-.72,8.57-7,19.08-7a25.77,25.77,0,0,1,8.84,1.56l8.1,3a2.22,2.22,0,0,1,1.27,1.21l11.49,26.47a2.23,2.23,0,0,1-1.28,3l-19.48,7.2A2.29,2.29,0,0,1,636.53,462.63Zm-19.6-24.27a2.23,2.23,0,0,1,1.59.67l18.59,18.74L653,451.9l-10.16-23.41-7.19-2.68a21.3,21.3,0,0,0-7.28-1.28c-9.17,0-16.12,5.92-16.19,6l-.11.09-10.65,8.09a1.49,1.49,0,0,1-.31.2,2.89,2.89,0,0,0-1.2,3.91,3,3,0,0,0,3.91,1.2l.13-.07L616,438.56A2.28,2.28,0,0,1,616.93,438.36Z" transform="translate(-561.04 -390.5)"/><path class="cls-2" d="M624.88,444.89a19,19,0,0,1-9.12-2.35,2.25,2.25,0,0,1,2.32-3.86,13.84,13.84,0,0,0,14.62-.86,2.25,2.25,0,0,1,2.59,3.68A17.81,17.81,0,0,1,624.88,444.89Z" transform="translate(-561.04 -390.5)"/><path class="cls-3" d="M563.29,418.68l-.1,36.72h8.23l15.77-30.22S585.5,413.08,563.29,418.68Z" transform="translate(-561.04 -390.5)"/><path class="cls-3" d="M664.8,418.68l.1,36.72h-8.22L640.9,425.18S642.6,413.08,664.8,418.68Z" transform="translate(-561.04 -390.5)"/><path class="cls-2" d="M571.9,458.17h-8.61a2.25,2.25,0,0,1-2.25-2.25V417.64a2.25,2.25,0,0,1,2.25-2.25h16.59a2.22,2.22,0,0,1,.51.06c.29.07,7.21,1.75,8.41,8.81a2.34,2.34,0,0,1-.18,1.33l-14.68,31.29A2.24,2.24,0,0,1,571.9,458.17Zm-6.36-4.5h4.93l13.75-29.3a6.9,6.9,0,0,0-4.65-4.48h-14Z" transform="translate(-561.04 -390.5)"/><path class="cls-2" d="M662.5,458.17h-8.61a2.25,2.25,0,0,1-2-1.29l-14.67-31.29a2.19,2.19,0,0,1-.18-1.33c1.19-7.06,8.11-8.74,8.41-8.81a2.1,2.1,0,0,1,.51-.06H662.5a2.25,2.25,0,0,1,2.25,2.25v38.28A2.24,2.24,0,0,1,662.5,458.17Zm-7.18-4.5h4.93V419.89h-14a6.9,6.9,0,0,0-4.64,4.48Z" transform="translate(-561.04 -390.5)"/><path class="cls-3" d="M606.11,418.68a3.65,3.65,0,0,1-2.6-1.07l-9-9a3.68,3.68,0,0,1,5.2-5.2l6.41,6.41,16-16a3.68,3.68,0,1,1,5.2,5.2l-18.57,18.58A3.66,3.66,0,0,1,606.11,418.68Z" transform="translate(-561.04 -390.5)"/><path class="cls-2" d="M606.11,420.93a5.88,5.88,0,0,1-4.19-1.73l-9-9a6,6,0,0,1,0-8.39,5.94,5.94,0,0,1,8.38,0l4.82,4.82,14.39-14.38a5.93,5.93,0,1,1,8.38,8.38L610.31,419.2A5.89,5.89,0,0,1,606.11,420.93Zm-9-16.36a1.42,1.42,0,0,0-1,2.43l9,9a1.46,1.46,0,0,0,2,0l18.58-18.58a1.42,1.42,0,0,0,0-2,1.46,1.46,0,0,0-2,0l-16,16a2.25,2.25,0,0,1-1.6.66h0a2.24,2.24,0,0,1-1.59-.66L598.11,405A1.41,1.41,0,0,0,597.1,404.57Z" transform="translate(-561.04 -390.5)"/></svg>