<svg xmlns="http://www.w3.org/2000/svg" xmlns:xlink="http://www.w3.org/1999/xlink" width="64.231" height="51.607" viewBox="0 0 64.231 51.607">
  <defs>
    <style>
      .cls-1 {
        fill: #3a8dfd;
        stroke: #3a8dfd;
      }

      .cls-2 {
        clip-path: url(#clip-path);
      }
    </style>
    <clipPath id="clip-path">
      <rect id="사각형_62" data-name="사각형 62" class="cls-1" width="64.231" height="51.607"/>
    </clipPath>
  </defs>
  <g id="그룹_17" data-name="그룹 17" class="cls-2">
    <path id="패스_78" data-name="패스 78" class="cls-1" d="M58.964,51.607H5.268A5.274,5.274,0,0,1,0,46.34V5.268A5.274,5.274,0,0,1,5.268,0h53.7a5.274,5.274,0,0,1,5.268,5.268V46.34a5.274,5.274,0,0,1-5.268,5.268M5.268,2.827A2.444,2.444,0,0,0,2.827,5.268V46.34a2.444,2.444,0,0,0,2.441,2.441h53.7A2.444,2.444,0,0,0,61.4,46.34V5.268a2.444,2.444,0,0,0-2.441-2.441Z" transform="translate(0 0)"/>
    <path id="패스_79" data-name="패스 79" class="cls-1" d="M31.972,30.026a6.651,6.651,0,0,1-4.534-1.795L1.058,3.818a1.436,1.436,0,0,1-.1-2,1.357,1.357,0,0,1,1.949-.1L29.29,26.135a3.918,3.918,0,0,0,5.364,0L61.035,1.722a1.359,1.359,0,0,1,1.95.1,1.436,1.436,0,0,1-.1,2L36.505,28.231a6.645,6.645,0,0,1-4.533,1.795" transform="translate(0.249 0.561)"/>
    <path id="패스_80" data-name="패스 80" class="cls-1" d="M2.421,42.443a1.383,1.383,0,0,1-.879-2.452l25.6-21.046A1.384,1.384,0,1,1,28.9,21.082L3.3,42.128a1.375,1.375,0,0,1-.878.315" transform="translate(0.428 7.701)"/>
    <path id="패스_81" data-name="패스 81" class="cls-1" d="M50.341,41.564a1.378,1.378,0,0,1-.878-.315L24.927,21.079a1.383,1.383,0,0,1,1.757-2.136L51.22,39.115a1.382,1.382,0,0,1-.879,2.449" transform="translate(10.096 7.701)"/>
  </g>
</svg>
