<svg xmlns="http://www.w3.org/2000/svg" width="32.731" height="34.685" viewBox="0 0 32.731 34.685">
  <defs>
    <style>
      .cls-1 {
        fill: #3a8dfd;
      }
    </style>
  </defs>
  <path id="phone_hover" class="cls-1" d="M32.73,27.393a8.587,8.587,0,0,1-.233,1.737,10.208,10.208,0,0,1-.488,1.687,6.379,6.379,0,0,1-2.836,2.611,8.626,8.626,0,0,1-4.324,1.256,8.762,8.762,0,0,1-1.232-.086,8.968,8.968,0,0,1-1.336-.308q-.732-.223-1.093-.357t-1.29-.5q-.929-.37-1.139-.443a20.543,20.543,0,0,1-4.068-2.044A35.535,35.535,0,0,1,8.554,25.62a36.8,36.8,0,0,1-5.021-6.5A22.953,22.953,0,0,1,1.6,14.806q-.07-.222-.418-1.207T.709,12.231Q.581,11.85.372,11.073A10.739,10.739,0,0,1,.081,9.657,10.171,10.171,0,0,1,0,8.351,10,10,0,0,1,1.186,3.769Q2.487,1.281,3.649.764A8.882,8.882,0,0,1,5.241.247,7.258,7.258,0,0,1,6.881,0a1.231,1.231,0,0,1,.488.074Q7.787.222,8.6,1.946q.255.468.7,1.331t.814,1.565q.372.7.721,1.318.07.1.406.616a7.11,7.11,0,0,1,.5.875,1.668,1.668,0,0,1,.163.7,2.082,2.082,0,0,1-.663,1.231A11.6,11.6,0,0,1,9.8,10.938a14.282,14.282,0,0,0-1.441,1.306,1.9,1.9,0,0,0-.663,1.133,1.746,1.746,0,0,0,.116.554q.116.332.2.5t.325.592q.245.419.267.468a25.808,25.808,0,0,0,4.045,5.789,24.551,24.551,0,0,0,5.463,4.286q.046.025.442.283t.558.345a4.732,4.732,0,0,0,.476.209,1.522,1.522,0,0,0,.523.123q.418,0,1.069-.7A14.672,14.672,0,0,0,22.409,24.3a11.84,11.84,0,0,1,1.278-1.527,1.9,1.9,0,0,1,1.162-.7,1.449,1.449,0,0,1,.663.172,6.412,6.412,0,0,1,.826.53q.488.357.581.431.581.37,1.244.764t1.476.862q.814.468,1.256.739,1.627.862,1.767,1.306a1.45,1.45,0,0,1,.07.517Z"/>
</svg>
