<svg xmlns="http://www.w3.org/2000/svg" width="31" height="31" viewBox="0 0 31 31">
  <defs>
    <style>
      .cls-1 {
        fill: #3a8dfd;
      }

      .cls-2 {
        fill: #fff;
      }
    </style>
  </defs>
  <g id="그룹_1" data-name="그룹 1" transform="translate(-1454.629 50.371)">
    <circle id="타원_1" data-name="타원 1" class="cls-1" cx="15.5" cy="15.5" r="15.5" transform="translate(1454.629 -50.371)"/>
    <path id="phone" class="cls-2" d="M15.15,12.7a3.986,3.986,0,0,1-.108.805,4.737,4.737,0,0,1-.226.782A2.955,2.955,0,0,1,13.5,15.5a3.988,3.988,0,0,1-2,.582,4.05,4.05,0,0,1-.57-.04,4.146,4.146,0,0,1-.619-.143q-.339-.1-.506-.166t-.6-.234q-.43-.172-.527-.205A9.5,9.5,0,0,1,6.8,14.343,16.455,16.455,0,0,1,3.96,11.876,17.058,17.058,0,0,1,1.635,8.861a10.648,10.648,0,0,1-.893-2Q.71,6.76.549,6.3T.328,5.67Q.269,5.493.172,5.133a4.984,4.984,0,0,1-.135-.657A4.722,4.722,0,0,1,0,3.871,4.639,4.639,0,0,1,.549,1.747,3.006,3.006,0,0,1,1.689.354a4.107,4.107,0,0,1,.737-.24A3.355,3.355,0,0,1,3.185,0a.569.569,0,0,1,.226.034Q3.6.1,3.981.9q.118.217.323.617t.377.725q.172.326.334.611.032.046.188.285a3.3,3.3,0,0,1,.231.406.774.774,0,0,1,.075.326.966.966,0,0,1-.307.571,5.372,5.372,0,0,1-.667.628,6.614,6.614,0,0,0-.667.605.882.882,0,0,0-.307.525.811.811,0,0,0,.054.257q.054.154.091.234t.151.274q.113.194.124.217A11.963,11.963,0,0,0,5.853,9.867a11.366,11.366,0,0,0,2.529,1.987q.021.012.2.131t.258.16a2.189,2.189,0,0,0,.221.1.7.7,0,0,0,.242.057q.194,0,.495-.326a6.8,6.8,0,0,0,.57-.708,5.486,5.486,0,0,1,.592-.708.879.879,0,0,1,.538-.326.67.67,0,0,1,.307.08,2.967,2.967,0,0,1,.382.246q.226.166.269.2.269.172.576.354t.683.4q.377.217.581.343.753.4.818.605a.673.673,0,0,1,.032.24Z" transform="translate(1462.554 -42.911)"/>
  </g>
</svg>
